# xmcd
# 
# Track frame offsets:
#     150
#     15537
#     30885
#     47715
#     63857
#     78627
#     95275
#     112112
#     132800
#     149805
#     164730
#     180440
#     196570
#     209792
#     226125
#     249460
#     268525
#     288490
#     312577
# 
# Disc length: 4446
# 
# Revision: 3
# Processed by: cddbd v1.5.2PL0 Copyright (c) Steve Scherf et al.
# Submitted via: BonkEnc v1.0.8
# 
DISCID=0f115c13
DTITLE=太田貴子 - 太田貴子 ベストコレクション
DYEAR=2000
DGENRE=JPop
TTITLE0=デリケートに好きして
TTITLE1=パジャマのままで
TTITLE2=Bin・Kanルージュ
TTITLE3=囁いてジュテーム
TTITLE4=Loveさりげなく
TTITLE5=美衝撃
TTITLE6=夏にあわてないで
TTITLE7=For You
TTITLE8=Heartbreak Mistake
TTITLE9=天使のミラクル
TTITLE10=あなたに一番効く薬
TTITLE11=ハートのSeason
TTITLE12=ヒーローは泣かない
TTITLE13=忘れチャイナの青い鳥
TTITLE14=Backseat Lovers
TTITLE15=Want
TTITLE16=街角のビリー・ザ・キッド
TTITLE17=Steady
TTITLE18=After Hours
EXTD=
EXTT0=
EXTT1=
EXTT2=
EXTT3=
EXTT4=
EXTT5=
EXTT6=
EXTT7=
EXTT8=
EXTT9=
EXTT10=
EXTT11=
EXTT12=
EXTT13=
EXTT14=
EXTT15=
EXTT16=
EXTT17=
EXTT18=
PLAYORDER=
